<svg xmlns="http://www.w3.org/2000/svg" version="1.1" xmlns:xlink="http://www.w3.org/1999/xlink" xmlns:svgjs="http://svgjs.com/svgjs" width="1440" height="560" preserveAspectRatio="none" viewBox="0 0 1440 560"><g mask="url(&quot;#SvgjsMask4520&quot;)" fill="none"><rect width="1440" height="560" x="0" y="0" fill="url(#SvgjsLinearGradient4521)"></rect><path d="M1440 0L911.32 0L1440 221.79z" fill="rgba(255, 255, 255, .1)"></path><path d="M911.32 0L1440 221.79L1440 387.94L609.73 0z" fill="rgba(255, 255, 255, .075)"></path><path d="M609.73 0L1440 387.94L1440 408.90999999999997L239.34000000000003 0z" fill="rgba(255, 255, 255, .05)"></path><path d="M239.34000000000015 0L1440 408.90999999999997L1440 501.73999999999995L76.50000000000014 0z" fill="rgba(255, 255, 255, .025)"></path><path d="M0 560L394.88 560L0 548.4z" fill="rgba(0, 0, 0, .1)"></path><path d="M0 548.4L394.88 560L655.01 560L0 301.37z" fill="rgba(0, 0, 0, .075)"></path><path d="M0 301.37L655.01 560L1000.9 560L0 224.51z" fill="rgba(0, 0, 0, .05)"></path><path d="M0 224.51L1000.9 560L1300.48 560L0 151.51z" fill="rgba(0, 0, 0, .025)"></path></g><defs><mask id="SvgjsMask4520"><rect width="1440" height="560" fill="#ffffff"></rect></mask><linearGradient x1="0%" y1="50%" x2="100%" y2="50%" gradientUnits="userSpaceOnUse" id="SvgjsLinearGradient4521"><stop stop-color="rgba(84, 164, 165, 1)" offset="0.46"></stop><stop stop-color="rgba(203, 220, 191, 1)" offset="1"></stop><stop stop-color="rgba(75, 69, 69, 1)" offset="1"></stop></linearGradient></defs></svg>