<?xml version="1.0" encoding="UTF-8"?>
<!DOCTYPE svg PUBLIC "-//W3C//DTD SVG 1.1//EN" "http://www.w3.org/Graphics/SVG/1.1/DTD/svg11.dtd">
<svg xmlns="http://www.w3.org/2000/svg" version="1.1" width="644px" height="373px" style="shape-rendering:geometricPrecision; text-rendering:geometricPrecision; image-rendering:optimizeQuality; fill-rule:evenodd; clip-rule:evenodd" xmlns:xlink="http://www.w3.org/1999/xlink">
<g><path style="opacity:0.876" fill="#7fb681" d="M 283.5,-0.5 C 291.833,-0.5 300.167,-0.5 308.5,-0.5C 332.546,25.2121 357.213,50.2121 382.5,74.5C 378.167,79.5 373.5,84.1667 368.5,88.5C 368.649,87.448 368.483,86.448 368,85.5C 340.02,56.6868 311.854,28.0201 283.5,-0.5 Z"/></g>
<g><path style="opacity:0.894" fill="#78b386" d="M 308.5,-0.5 C 315.5,-0.5 322.5,-0.5 329.5,-0.5C 350.782,20.9573 371.782,42.6239 392.5,64.5C 389.5,68.1667 386.167,71.5 382.5,74.5C 357.213,50.2121 332.546,25.2121 308.5,-0.5 Z"/></g>
<g><path style="opacity:0.911" fill="#73b18b" d="M 329.5,-0.5 C 335.167,-0.5 340.833,-0.5 346.5,-0.5C 363.921,17.253 381.255,34.9197 398.5,52.5C 399.63,53.6223 400.297,54.9557 400.5,56.5C 398.167,59.5 395.5,62.1667 392.5,64.5C 371.782,42.6239 350.782,20.9573 329.5,-0.5 Z"/></g>
<g><path style="opacity:0.928" fill="#6daf90" d="M 346.5,-0.5 C 353.833,-0.5 361.167,-0.5 368.5,-0.5C 383.194,14.5267 397.861,29.5267 412.5,44.5C 408.833,48.8333 404.833,52.8333 400.5,56.5C 400.297,54.9557 399.63,53.6223 398.5,52.5C 381.255,34.9197 363.921,17.253 346.5,-0.5 Z"/></g>
<g><path style="opacity:0.962" fill="#62aa98" d="M 368.5,-0.5 C 383.5,-0.5 398.5,-0.5 413.5,-0.5C 420.5,7.16667 427.833,14.5 435.5,21.5C 428.167,29.5 420.5,37.1667 412.5,44.5C 397.861,29.5267 383.194,14.5267 368.5,-0.5 Z"/></g>
<g><path style="opacity:0.978" fill="#59a6a0" d="M 413.5,-0.5 C 428.167,-0.5 442.833,-0.5 457.5,-0.5C 450.5,7.16667 443.167,14.5 435.5,21.5C 427.833,14.5 420.5,7.16667 413.5,-0.5 Z"/></g>
<g><path style="opacity:0.594" fill="#8bbc77" d="M 459.5,-0.5 C 465.167,-0.5 470.833,-0.5 476.5,-0.5C 501.5,25.1667 526.833,50.5 552.5,75.5C 549.5,79.8333 545.833,83.5 541.5,86.5C 540.761,86.631 540.094,86.4643 539.5,86C 511.965,58.2985 484.299,30.7985 456.5,3.5C 457.5,2.16667 458.5,0.833333 459.5,-0.5 Z"/></g>
<g><path style="opacity:0.58" fill="#90be72" d="M 476.5,-0.5 C 483.833,-0.5 491.167,-0.5 498.5,-0.5C 519.86,21.527 541.527,43.1937 563.5,64.5C 560.509,68.7904 556.842,72.457 552.5,75.5C 526.833,50.5 501.5,25.1667 476.5,-0.5 Z"/></g>
<g><path style="opacity:0.569" fill="#97c06d" d="M 498.5,-0.5 C 509.167,-0.5 519.833,-0.5 530.5,-0.5C 546.5,16.1667 562.833,32.5 579.5,48.5C 574.833,54.5 569.5,59.8333 563.5,64.5C 541.527,43.1937 519.86,21.527 498.5,-0.5 Z"/></g>
<g><path style="opacity:0.552" fill="#9ec466" d="M 530.5,-0.5 C 537.5,-0.5 544.5,-0.5 551.5,-0.5C 563.885,12.8863 576.885,25.553 590.5,37.5C 587.167,41.5 583.5,45.1667 579.5,48.5C 562.833,32.5 546.5,16.1667 530.5,-0.5 Z"/></g>
<g><path style="opacity:0.537" fill="#a6c861" d="M 551.5,-0.5 C 562.833,-0.5 574.167,-0.5 585.5,-0.5C 592.5,6.83333 599.5,14.1667 606.5,21.5C 601.5,27.1667 596.167,32.5 590.5,37.5C 576.885,25.553 563.885,12.8863 551.5,-0.5 Z"/></g>
<g><path style="opacity:0.523" fill="#aecb5a" d="M 585.5,-0.5 C 599.833,-0.5 614.167,-0.5 628.5,-0.5C 621.5,7.16667 614.167,14.5 606.5,21.5C 599.5,14.1667 592.5,6.83333 585.5,-0.5 Z"/></g>
<g><path style="opacity:0.852" fill="#86ba7b" d="M 274.5,-0.5 C 277.5,-0.5 280.5,-0.5 283.5,-0.5C 311.854,28.0201 340.02,56.6868 368,85.5C 368.483,86.448 368.649,87.448 368.5,88.5C 364.833,92.8333 360.833,96.8333 356.5,100.5C 356.649,99.448 356.483,98.448 356,97.5C 326.633,67.2998 297.133,37.2998 267.5,7.5C 269.49,4.51175 271.823,1.84508 274.5,-0.5 Z"/></g>
<g><path style="opacity:0.6" fill="#86b97a" d="M 456.5,3.5 C 484.299,30.7985 511.965,58.2985 539.5,86C 540.094,86.4643 540.761,86.631 541.5,86.5C 539.812,89.5214 537.479,91.8548 534.5,93.5C 505.99,66.3229 477.99,38.3229 450.5,9.5C 452.167,7.16667 454.167,5.16667 456.5,3.5 Z"/></g>
<g><path style="opacity:0.844" fill="#8bbc76" d="M 267.5,7.5 C 297.133,37.2998 326.633,67.2998 356,97.5C 356.483,98.448 356.649,99.448 356.5,100.5C 353.833,103.833 350.833,106.833 347.5,109.5C 316.828,79.1611 286.828,48.1611 257.5,16.5C 260.529,13.1362 263.863,10.1362 267.5,7.5 Z"/></g>
<g><path style="opacity:0.614" fill="#80b780" d="M 450.5,9.5 C 477.99,38.3229 505.99,66.3229 534.5,93.5C 529.811,99.1874 524.811,104.521 519.5,109.5C 516.707,107.546 514.041,105.379 511.5,103C 486.28,77.9023 461.28,52.569 436.5,27C 435.552,26.5172 434.552,26.3505 433.5,26.5C 438.833,20.5 444.5,14.8333 450.5,9.5 Z"/></g>
<g><path style="opacity:0.625" fill="#78b386" d="M 433.5,26.5 C 434.552,26.3505 435.552,26.5172 436.5,27C 461.28,52.569 486.28,77.9023 511.5,103C 514.041,105.379 516.707,107.546 519.5,109.5C 514.167,114.833 508.833,120.167 503.5,125.5C 503.649,124.448 503.483,123.448 503,122.5C 475.583,94.5811 447.749,67.2478 419.5,40.5C 423.833,35.5 428.5,30.8333 433.5,26.5 Z"/></g>
<g><path style="opacity:0.813" fill="#94c06f" d="M 257.5,16.5 C 286.828,48.1611 316.828,79.1611 347.5,109.5C 342.833,114.833 337.833,119.833 332.5,124.5C 331.448,124.649 330.448,124.483 329.5,124C 299.964,93.9648 270.631,63.7981 241.5,33.5C 246.833,27.8333 252.167,22.1667 257.5,16.5 Z"/></g>
<g><path style="opacity:0.802" fill="#9ac26a" d="M 241.5,33.5 C 270.631,63.7981 299.964,93.9648 329.5,124C 330.448,124.483 331.448,124.649 332.5,124.5C 330.5,127.167 328.167,129.5 325.5,131.5C 296.09,101.255 266.423,71.0886 236.5,41C 235.906,40.5357 235.239,40.369 234.5,40.5C 236.167,37.5 238.5,35.1667 241.5,33.5 Z"/></g>
<g><path style="opacity:0.786" fill="#9fc567" d="M 234.5,40.5 C 235.239,40.369 235.906,40.5357 236.5,41C 266.423,71.0886 296.09,101.255 325.5,131.5C 322.5,135.167 319.167,138.5 315.5,141.5C 288.81,115.977 262.976,89.6432 238,62.5C 233.609,58.2698 229.109,54.2698 224.5,50.5C 227.167,46.5 230.5,43.1667 234.5,40.5 Z"/></g>
<g><path style="opacity:0.639" fill="#72b18b" d="M 419.5,40.5 C 447.749,67.2478 475.583,94.5811 503,122.5C 503.483,123.448 503.649,124.448 503.5,125.5C 501.167,128.5 498.5,131.167 495.5,133.5C 466.744,106.051 438.411,78.0507 410.5,49.5C 413.167,46.1667 416.167,43.1667 419.5,40.5 Z"/></g>
<g><path style="opacity:0.764" fill="#a6c760" d="M 224.5,50.5 C 229.109,54.2698 233.609,58.2698 238,62.5C 262.976,89.6432 288.81,115.977 315.5,141.5C 310.167,147.5 304.5,153.167 298.5,158.5C 298.649,157.448 298.483,156.448 298,155.5C 268.66,125.327 239.16,95.3266 209.5,65.5C 214.167,60.1667 219.167,55.1667 224.5,50.5 Z"/></g>
<g><path style="opacity:0.653" fill="#6cae90" d="M 410.5,49.5 C 438.411,78.0507 466.744,106.051 495.5,133.5C 491.543,137.491 487.543,141.491 483.5,145.5C 483.649,144.448 483.483,143.448 483,142.5C 455.298,114.965 427.798,87.2987 400.5,59.5C 403.5,55.8333 406.833,52.5 410.5,49.5 Z"/></g>
<g><path style="opacity:0.748" fill="#adca5b" d="M 209.5,65.5 C 239.16,95.3266 268.66,125.327 298,155.5C 298.483,156.448 298.649,157.448 298.5,158.5C 296.833,160.833 294.833,162.833 292.5,164.5C 264.564,135.063 236.064,106.063 207,77.5C 205.579,75.5952 204.412,73.5952 203.5,71.5C 205.167,69.1667 207.167,67.1667 209.5,65.5 Z"/></g>
<g><path style="opacity:0.667" fill="#66ab96" d="M 400.5,59.5 C 427.798,87.2987 455.298,114.965 483,142.5C 483.483,143.448 483.649,144.448 483.5,145.5C 478.807,150.527 473.807,155.194 468.5,159.5C 441.229,131.728 413.729,104.062 386,76.5C 385.536,75.9056 385.369,75.2389 385.5,74.5C 390.167,69.1667 395.167,64.1667 400.5,59.5 Z"/></g>
<g><path style="opacity:0.675" fill="#60a99b" d="M 385.5,74.5 C 385.369,75.2389 385.536,75.9056 386,76.5C 413.729,104.062 441.229,131.728 468.5,159.5C 465.558,163.446 462.225,167.112 458.5,170.5C 430.194,142.527 401.86,114.527 373.5,86.5C 377.167,82.1667 381.167,78.1667 385.5,74.5 Z"/></g>
<g><path style="opacity:0.73" fill="#b2cd57" d="M 203.5,71.5 C 204.412,73.5952 205.579,75.5952 207,77.5C 236.064,106.063 264.564,135.063 292.5,164.5C 289.5,168.167 286.167,171.5 282.5,174.5C 282.631,173.761 282.464,173.094 282,172.5C 251.938,142.605 222.105,112.605 192.5,82.5C 195.833,78.5 199.5,74.8333 203.5,71.5 Z"/></g>
<g><path style="opacity:0.715" fill="#b8d052" d="M 192.5,82.5 C 222.105,112.605 251.938,142.605 282,172.5C 282.464,173.094 282.631,173.761 282.5,174.5C 279.167,178.5 275.5,182.167 271.5,185.5C 270.761,185.631 270.094,185.464 269.5,185C 239.966,154.633 210.299,124.466 180.5,94.5C 184.167,90.1667 188.167,86.1667 192.5,82.5 Z"/></g>
<g><path style="opacity:0.687" fill="#5aa79f" d="M 373.5,86.5 C 401.86,114.527 430.194,142.527 458.5,170.5C 455.194,173.806 451.86,177.14 448.5,180.5C 420.882,153.883 393.549,126.883 366.5,99.5C 365.37,98.3777 364.703,97.0443 364.5,95.5C 367.167,92.1667 370.167,89.1667 373.5,86.5 Z"/></g>
<g><path style="opacity:0.699" fill="#bed24d" d="M 180.5,94.5 C 210.299,124.466 239.966,154.633 269.5,185C 270.094,185.464 270.761,185.631 271.5,185.5C 268.5,189.167 265.167,192.5 261.5,195.5C 231.165,165.165 201.165,134.498 171.5,103.5C 174.167,100.167 177.167,97.1667 180.5,94.5 Z"/></g>
<g><path style="opacity:0.532" fill="#53a3a4" d="M 364.5,95.5 C 364.703,97.0443 365.37,98.3777 366.5,99.5C 393.549,126.883 420.882,153.883 448.5,180.5C 414.368,215.132 380.035,249.632 345.5,284C 322.544,308.756 295.877,313.756 265.5,299C 241.14,282.265 232.307,259.432 239,230.5C 241.362,222.774 245.029,215.774 250,209.5C 288.035,171.299 326.201,133.299 364.5,95.5 Z"/></g>
<g><path style="opacity:0.671" fill="#c6d646" d="M 171.5,103.5 C 201.165,134.498 231.165,165.165 261.5,195.5C 256.833,200.833 251.833,205.833 246.5,210.5C 216.527,179.86 186.194,149.527 155.5,119.5C 160.5,113.833 165.833,108.5 171.5,103.5 Z"/></g>
<g><path style="opacity:0.646" fill="#cfd93f" d="M 155.5,119.5 C 186.194,149.527 216.527,179.86 246.5,210.5C 240.833,216.833 234.833,222.833 228.5,228.5C 228.649,227.448 228.483,226.448 228,225.5C 225.626,223.461 223.626,221.128 222,218.5C 194.046,191.379 166.546,163.712 139.5,135.5C 144.5,129.833 149.833,124.5 155.5,119.5 Z"/></g>
<g><path style="opacity:0.634" fill="#d6dc3a" d="M 139.5,135.5 C 166.546,163.712 194.046,191.379 222,218.5C 223.626,221.128 225.626,223.461 228,225.5C 228.483,226.448 228.649,227.448 228.5,228.5C 226.5,231.167 224.167,233.5 221.5,235.5C 192.232,205.069 162.899,174.902 133.5,145C 132.552,144.517 131.552,144.351 130.5,144.5C 133.167,141.167 136.167,138.167 139.5,135.5 Z"/></g>
<g><path style="opacity:0.615" fill="#dddf34" d="M 130.5,144.5 C 131.552,144.351 132.552,144.517 133.5,145C 162.899,174.902 192.232,205.069 221.5,235.5C 216.167,241.5 210.5,247.167 204.5,252.5C 204.649,251.448 204.483,250.448 204,249.5C 174.578,219.246 145.078,189.246 115.5,159.5C 120.167,154.167 125.167,149.167 130.5,144.5 Z"/></g>
<g><path style="opacity:0.592" fill="#e5e32e" d="M 115.5,159.5 C 145.078,189.246 174.578,219.246 204,249.5C 204.483,250.448 204.649,251.448 204.5,252.5C 201.833,255.833 198.833,258.833 195.5,261.5C 193.821,261.108 192.154,260.608 190.5,260C 166.362,234.861 141.862,210.028 117,185.5C 112.599,180.607 108.432,175.607 104.5,170.5C 107.833,166.5 111.5,162.833 115.5,159.5 Z"/></g>
<g><path style="opacity:0.561" fill="#eee72a" d="M 104.5,170.5 C 108.432,175.607 112.599,180.607 117,185.5C 141.862,210.028 166.362,234.861 190.5,260C 192.154,260.608 193.821,261.108 195.5,261.5C 187.833,269.833 179.833,277.833 171.5,285.5C 144.201,258.033 117.034,230.367 90,202.5C 87.2337,199.223 84.067,196.557 80.5,194.5C 88.1667,186.167 96.1667,178.167 104.5,170.5 Z"/></g>
<g><path style="opacity:0.488" fill="#f2eb42" d="M 80.5,194.5 C 84.067,196.557 87.2337,199.223 90,202.5C 117.034,230.367 144.201,258.033 171.5,285.5C 168.167,289.5 164.5,293.167 160.5,296.5C 148.696,284.194 136.53,271.86 124,259.5C 122,256.833 120,254.167 118,251.5C 101.607,236.273 85.7734,220.606 70.5,204.5C 73.5,200.833 76.8333,197.5 80.5,194.5 Z"/></g>
<g><path style="opacity:0.374" fill="#f5ef6e" d="M 56.5,218.5 C 57.675,218.281 58.675,218.614 59.5,219.5C 87.8176,249.318 116.651,278.651 146,307.5C 146.483,308.448 146.649,309.448 146.5,310.5C 145.167,312.5 143.5,314.167 141.5,315.5C 111.917,284.582 81.9172,253.915 51.5,223.5C 52.8333,221.5 54.5,219.833 56.5,218.5 Z"/></g>
<g><path style="opacity:0.329" fill="#f6f17d" d="M 51.5,223.5 C 81.9172,253.915 111.917,284.582 141.5,315.5C 139.5,318.167 137.167,320.5 134.5,322.5C 105.203,292.035 75.7028,261.702 46,231.5C 45.5357,230.906 45.369,230.239 45.5,229.5C 47.1667,227.167 49.1667,225.167 51.5,223.5 Z"/></g>
<g><path style="opacity:0.196" fill="#f9f7b1" d="M 25.5,249.5 C 54.7719,278.94 83.9386,308.606 113,338.5C 113.333,338.167 113.667,337.833 114,337.5C 114.816,338.823 115.983,339.489 117.5,339.5C 115.833,341.833 113.833,343.833 111.5,345.5C 108.071,344.668 105.071,342.501 102.5,339C 102.833,338.667 103.167,338.333 103.5,338C 98.4945,333.327 93.8278,328.327 89.5,323C 88.8333,322.333 88.1667,322.333 87.5,323C 88.5,324 89.5,325 90.5,326C 89.8333,326.667 89.1667,326.667 88.5,326C 78.7078,315.87 68.7078,306.204 58.5,297C 54.1108,292.881 50.4441,288.215 47.5,283C 50.0278,282.331 50.0278,281.498 47.5,280.5C 46.3247,281.855 45.3247,281.688 44.5,280C 45.1667,279.667 45.8333,279.333 46.5,279C 44.273,276.065 41.6064,274.065 38.5,273C 40.1667,274.667 41.8333,276.333 43.5,278C 42.8333,278.667 42.1667,278.667 41.5,278C 33.9642,270.632 26.6308,263.132 19.5,255.5C 21.1667,253.167 23.1667,251.167 25.5,249.5 Z"/></g>
<g><path style="opacity:0.412" fill="#f3ee5f" d="M 65.5,209.5 C 96.1457,239.479 126.479,269.812 156.5,300.5C 153.5,304.167 150.167,307.5 146.5,310.5C 146.649,309.448 146.483,308.448 146,307.5C 116.651,278.651 87.8176,249.318 59.5,219.5C 58.675,218.614 57.675,218.281 56.5,218.5C 59.1667,215.167 62.1667,212.167 65.5,209.5 Z"/></g>
<g><path style="opacity:0.449" fill="#f3ec51" d="M 70.5,204.5 C 85.7734,220.606 101.607,236.273 118,251.5C 120,254.167 122,256.833 124,259.5C 136.53,271.86 148.696,284.194 160.5,296.5C 159.5,298.167 158.167,299.5 156.5,300.5C 126.479,269.812 96.1457,239.479 65.5,209.5C 66.8333,207.5 68.5,205.833 70.5,204.5 Z"/></g>
<g><path style="opacity:0.247" fill="#f8f4a0" d="M 34.5,240.5 C 34.7713,242.312 35.438,243.978 36.5,245.5C 65.3748,273.541 93.7081,302.041 121.5,331C 122.737,331.232 123.737,331.732 124.5,332.5C 122.5,335.167 120.167,337.5 117.5,339.5C 115.983,339.489 114.816,338.823 114,337.5C 113.667,337.833 113.333,338.167 113,338.5C 83.9386,308.606 54.7719,278.94 25.5,249.5C 28.1667,246.167 31.1667,243.167 34.5,240.5 Z"/></g>
<g><path style="opacity:0.296" fill="#f7f28a" d="M 45.5,229.5 C 45.369,230.239 45.5357,230.906 46,231.5C 75.7028,261.702 105.203,292.035 134.5,322.5C 132.833,324.833 130.833,326.833 128.5,328.5C 114.452,313.618 99.9522,299.285 85,285.5C 84.2155,283.714 83.0488,282.214 81.5,281C 67.9079,265.911 53.2412,251.411 37.5,237.5C 39.8333,234.5 42.5,231.833 45.5,229.5 Z"/></g>
<g><path style="opacity:0.05" fill="#fcfcea" d="M -0.5,281.5 C 11.6876,293.522 24.0209,305.355 36.5,317C 35.8333,317.333 35.1667,317.667 34.5,318C 51.5988,334.263 68.5988,350.763 85.5,367.5C 86.5272,366.209 87.5272,366.209 88.5,367.5C 87.5637,368.974 86.2303,369.974 84.5,370.5C 82.7741,370.815 81.1075,370.981 79.5,371C 64.8758,356.058 49.2091,340.724 32.5,325C 33.1667,324.667 33.8333,324.333 34.5,324C 26.29,318.503 18.4566,312.003 11,304.5C 10.3856,302.687 10.7189,302.353 12,303.5C 12.7504,302.874 13.5838,302.374 14.5,302C 12.36,301.027 10.6933,299.527 9.5,297.5C 8.91395,297.709 8.41395,298.043 8,298.5C 5.93616,295.726 3.43616,293.893 0.5,293C 1.16667,293.667 1.83333,294.333 2.5,295C 1.60572,296.104 0.605722,297.27 -0.5,298.5C -0.5,292.833 -0.5,287.167 -0.5,281.5 Z"/></g>
<g><path style="opacity:0.266" fill="#f7f495" d="M 37.5,237.5 C 53.2412,251.411 67.9079,265.911 81.5,281C 83.0488,282.214 84.2155,283.714 85,285.5C 99.9522,299.285 114.452,313.618 128.5,328.5C 127.5,330.167 126.167,331.5 124.5,332.5C 123.737,331.732 122.737,331.232 121.5,331C 93.7081,302.041 65.3748,273.541 36.5,245.5C 35.438,243.978 34.7713,242.312 34.5,240.5C 35.1667,239.167 36.1667,238.167 37.5,237.5 Z"/></g>
<g><path style="opacity:0.092" fill="#fcfbdd" d="M 3.5,271.5 C 18.6368,285.798 32.8035,300.131 46,314.5C 47.2975,313.216 48.4642,313.383 49.5,315C 47.2908,315.957 47.4575,317.124 50,318.5C 58.473,326.973 67.973,336.473 78.5,347C 78,347.5 77.5,348 77,348.5C 75,346.5 73,344.5 71,342.5C 70.4101,345.306 71.0768,347.639 73,349.5C 73.3333,348.833 73.6667,348.167 74,347.5C 75.1437,349.917 76.8103,350.584 79,349.5C 84.3362,353.67 89.1696,358.337 93.5,363.5C 92.0552,365.063 90.3885,366.396 88.5,367.5C 87.5272,366.209 86.5272,366.209 85.5,367.5C 68.5988,350.763 51.5988,334.263 34.5,318C 35.1667,317.667 35.8333,317.333 36.5,317C 24.0209,305.355 11.6876,293.522 -0.5,281.5C -0.5,279.167 -0.5,276.833 -0.5,274.5C 0.833333,273.5 2.16667,272.5 3.5,271.5 Z"/></g>
<g><path style="opacity:0.017" fill="#f5f4f0" d="M 84.5,370.5 C 83.8333,371.167 83.1667,371.833 82.5,372.5C 76.8333,372.5 71.1667,372.5 65.5,372.5C 43.4727,350.14 21.4727,327.806 -0.5,305.5C -0.5,303.167 -0.5,300.833 -0.5,298.5C 0.605722,297.27 1.60572,296.104 2.5,295C 1.83333,294.333 1.16667,293.667 0.5,293C 3.43616,293.893 5.93616,295.726 8,298.5C 8.41395,298.043 8.91395,297.709 9.5,297.5C 10.6933,299.527 12.36,301.027 14.5,302C 13.5838,302.374 12.7504,302.874 12,303.5C 10.7189,302.353 10.3856,302.687 11,304.5C 18.4566,312.003 26.29,318.503 34.5,324C 33.8333,324.333 33.1667,324.667 32.5,325C 49.2091,340.724 64.8758,356.058 79.5,371C 81.1075,370.981 82.7741,370.815 84.5,370.5 Z"/></g>
<g><path style="opacity:0.118" fill="#fbface" d="M 13.5,261.5 C 22.9101,270.075 31.7434,279.075 40,288.5C 51.6082,300.108 62.1082,310.608 71.5,320C 73.7506,319.787 75.7506,320.787 77.5,323C 76.8333,323.333 76.1667,323.667 75.5,324C 76.6667,325.167 77.8333,326.333 79,327.5C 79.3333,327.167 79.6667,326.833 80,326.5C 88.5009,335.362 96.3343,344.362 103.5,353.5C 100.5,357.167 97.1667,360.5 93.5,363.5C 89.1696,358.337 84.3362,353.67 79,349.5C 76.8103,350.584 75.1437,349.917 74,347.5C 73.6667,348.167 73.3333,348.833 73,349.5C 71.0768,347.639 70.4101,345.306 71,342.5C 73,344.5 75,346.5 77,348.5C 77.5,348 78,347.5 78.5,347C 67.973,336.473 58.473,326.973 50,318.5C 47.4575,317.124 47.2908,315.957 49.5,315C 48.4642,313.383 47.2975,313.216 46,314.5C 32.8035,300.131 18.6368,285.798 3.5,271.5C 6.5,267.833 9.83333,264.5 13.5,261.5 Z"/></g>
<g><path style="opacity:0.169" fill="#faf7bc" d="M 19.5,255.5 C 26.6308,263.132 33.9642,270.632 41.5,278C 42.1667,278.667 42.8333,278.667 43.5,278C 41.8333,276.333 40.1667,274.667 38.5,273C 41.6064,274.065 44.273,276.065 46.5,279C 45.8333,279.333 45.1667,279.667 44.5,280C 45.3247,281.688 46.3247,281.855 47.5,280.5C 50.0278,281.498 50.0278,282.331 47.5,283C 50.4441,288.215 54.1108,292.881 58.5,297C 68.7078,306.204 78.7078,315.87 88.5,326C 89.1667,326.667 89.8333,326.667 90.5,326C 89.5,325 88.5,324 87.5,323C 88.1667,322.333 88.8333,322.333 89.5,323C 93.8278,328.327 98.4945,333.327 103.5,338C 103.167,338.333 102.833,338.667 102.5,339C 105.071,342.501 108.071,344.668 111.5,345.5C 109.167,348.5 106.5,351.167 103.5,353.5C 96.3343,344.362 88.5009,335.362 80,326.5C 79.6667,326.833 79.3333,327.167 79,327.5C 77.8333,326.333 76.6667,325.167 75.5,324C 76.1667,323.667 76.8333,323.333 77.5,323C 75.7506,320.787 73.7506,319.787 71.5,320C 62.1082,310.608 51.6082,300.108 40,288.5C 31.7434,279.075 22.9101,270.075 13.5,261.5C 15.1667,259.167 17.1667,257.167 19.5,255.5 Z"/></g>
</svg>
